# xmcd
# 
# Track frame offsets:
#     150
#     20495
#     38948
#     55128
#     69466
#     87822
#     113761
#     126536
#     144688
#     163555
#     189320
#     213389
# 
# Disc length: 3224
# 
# Revision: 6
# Processed by: cddbd v1.5.2PL0 Copyright (c) Steve Scherf et al.
# Submitted via: fre:ac v1.0.31
# 
DISCID=a90c960c
DTITLE=Prince - 3121
DYEAR=2006
DGENRE=R&B
TTITLE0=3121
TTITLE1=Lolita
TTITLE2=Te Amo Corazón
TTITLE3=Black Sweat
TTITLE4=Incense And Candles
TTITLE5=Love
TTITLE6=Satisfied
TTITLE7=Fury
TTITLE8=The Word
TTITLE9=Beautiful, Loved And Blessed
TTITLE10=The Dance
TTITLE11=Get On The Boat
EXTD=
EXTT0=
EXTT1=
EXTT2=
EXTT3=
EXTT4=
EXTT5=
EXTT6=
EXTT7=
EXTT8=
EXTT9=
EXTT10=
EXTT11=
PLAYORDER=
